<svg id="visual" viewBox="0 0 1920 1080" width="1920" height="1080" xmlns="http://www.w3.org/2000/svg" xmlns:xlink="http://www.w3.org/1999/xlink" version="1.1"><path d="M0 913L22.8 898.8C45.7 884.7 91.3 856.3 137 864.2C182.7 872 228.3 916 274 939.7C319.7 963.3 365.3 966.7 411.2 951.2C457 935.7 503 901.3 548.8 897.8C594.7 894.3 640.3 921.7 686 945.2C731.7 968.7 777.3 988.3 823 997.7C868.7 1007 914.3 1006 960 1001.7C1005.7 997.3 1051.3 989.7 1097 960.7C1142.7 931.7 1188.3 881.3 1234 868.2C1279.7 855 1325.3 879 1371.2 899.8C1417 920.7 1463 938.3 1508.8 948.3C1554.7 958.3 1600.3 960.7 1646 961.3C1691.7 962 1737.3 961 1783 951.2C1828.7 941.3 1874.3 922.7 1897.2 913.3L1920 904L1920 1081L1897.2 1081C1874.3 1081 1828.7 1081 1783 1081C1737.3 1081 1691.7 1081 1646 1081C1600.3 1081 1554.7 1081 1508.8 1081C1463 1081 1417 1081 1371.2 1081C1325.3 1081 1279.7 1081 1234 1081C1188.3 1081 1142.7 1081 1097 1081C1051.3 1081 1005.7 1081 960 1081C914.3 1081 868.7 1081 823 1081C777.3 1081 731.7 1081 686 1081C640.3 1081 594.7 1081 548.8 1081C503 1081 457 1081 411.2 1081C365.3 1081 319.7 1081 274 1081C228.3 1081 182.7 1081 137 1081C91.3 1081 45.7 1081 22.8 1081L0 1081Z" fill="#2e3856" stroke-linecap="round" stroke-linejoin="miter"></path></svg>