<svg id="visual" viewBox="0 0 900 600" width="900" height="600" xmlns="http://www.w3.org/2000/svg" xmlns:xlink="http://www.w3.org/1999/xlink" version="1.1"><g transform="translate(39.20643569430257 606.8943980918497)"><path d="M184.7 -332C209.4 -305.6 178.7 -195.6 251.2 -126.3C323.7 -57 499.4 -28.5 474.7 -14.2C450 0 225 0 172.3 103.6C119.7 207.3 239.3 414.5 239.3 456.2C239.3 497.9 119.7 373.9 36.8 310.1C-46 246.3 -92 242.7 -221.9 276C-351.8 309.3 -565.6 379.7 -555.1 339.8C-544.6 300 -309.8 150 -285.6 14C-261.3 -122 -447.6 -244 -489 -337.2C-530.3 -430.5 -426.6 -495 -321 -474.6C-215.3 -454.3 -107.7 -349.2 -13.8 -325.2C80 -301.2 160 -358.5 184.7 -332" fill="#2e3856"></path></g></svg>